<?xml version="1.0" encoding="utf-8"?>
<!-- Generator: Adobe Illustrator 19.1.0, SVG Export Plug-In . SVG Version: 6.00 Build 0)  -->
<!DOCTYPE svg PUBLIC "-//W3C//DTD SVG 1.1//EN" "http://www.w3.org/Graphics/SVG/1.1/DTD/svg11.dtd">
<svg version="1.1" id="assets" xmlns="http://www.w3.org/2000/svg" xmlns:xlink="http://www.w3.org/1999/xlink" x="0px" y="0px"
	 viewBox="0 0 19 19" style="enable-background:new 0 0 19 19;" xml:space="preserve">
<g id="actions_x5F_normal_1_">
	<path style="fill:#6B6B6B;" d="M16,9.8c0,0.7-0.6,1.3-1.3,1.3h-0.5c-0.7,0-1.3-0.6-1.3-1.3V9.3C13,8.6,13.6,8,14.3,8h0.5
		C15.4,8,16,8.6,16,9.3V9.8z"/>
	<path style="fill:#6B6B6B;" d="M11,9.8c0,0.7-0.6,1.3-1.3,1.3H9.3C8.6,11,8,10.4,8,9.8V9.3C8,8.6,8.6,8,9.3,8h0.5
		C10.4,8,11,8.6,11,9.3V9.8z"/>
	<path style="fill:#6B6B6B;" d="M6,9.8C6,10.4,5.4,11,4.7,11H4.3C3.6,11,3,10.4,3,9.8V9.3C3,8.6,3.6,8,4.3,8h0.5C5.4,8,6,8.6,6,9.3
		V9.8z"/>
</g>
</svg>
