<?xml version="1.0" encoding="UTF-8"?>
<!-- Generator: Adobe Illustrator 22.1.0, SVG Export Plug-In . SVG Version: 6.00 Build 0)  -->
<svg xmlns="http://www.w3.org/2000/svg" xmlns:xlink="http://www.w3.org/1999/xlink" id="Layer_1" x="0px" y="0px" width="24px" height="24px" viewBox="0 0 24 24" style="enable-background:new 0 0 24 24;" xml:space="preserve">
<style type="text/css">
	.st0{fill:#676767;}
</style>
<path class="st0" d="M18,7c0-1.7-2.7-3-6-3S6,5.3,6,7l0,0v11.4c0,1.4,2.7,2.6,6,2.6s6-1.2,6-2.6V7L18,7L18,7z M12,5c3.1,0,5,1.2,5,2  s-1.9,2-5,2S7,7.8,7,7S8.9,5,12,5z M12,20c-3.2,0-5-1.1-5-1.6V8.7C8.1,9.5,9.9,10,12,10s3.9-0.5,5-1.3v9.7C17,18.8,15.2,20,12,20z"></path>
</svg>
