<?xml version="1.0" encoding="UTF-8"?>
<!-- Generator: Adobe Illustrator 22.1.0, SVG Export Plug-In . SVG Version: 6.00 Build 0)  -->
<svg xmlns="http://www.w3.org/2000/svg" xmlns:xlink="http://www.w3.org/1999/xlink" id="Layer_1" x="0px" y="0px" width="24px" height="24px" viewBox="0 0 24 24" style="enable-background:new 0 0 24 24;" xml:space="preserve">
<style type="text/css">
	.st0{fill:#676767;}
	.st1{fill:#B3B3B4;}
	.st2{fill:#666767;}
</style>
<g>
	<g>
		<g>
			<path id="Square_21_" class="st0" d="M19,3H4C3.5,3,3,3.4,3,4v15c0,0.5,0.5,1,1,1h15c0.5,0,1-0.5,1-1V4C20,3.4,19.6,3,19,3z      M19,19H4V4h15V19z"></path>
		</g>
	</g>
	<g>
		<rect id="Bar3_14_" x="14" y="9" class="st0" width="1" height="5"></rect>
		<rect id="Bar2_14_" x="11" y="7" class="st0" width="1" height="7"></rect>
		<rect id="Bar1_14_" x="8" y="10" class="st0" width="1" height="4"></rect>
	</g>
	<g>
		<rect id="Line_4_" x="7" y="15" class="st1" width="9" height="1"></rect>
	</g>
	<rect x="20" y="5" class="st2" width="1" height="3"></rect>
	<rect x="20" y="10" class="st2" width="1" height="3"></rect>
	<rect x="20" y="15" class="st2" width="1" height="3"></rect>
</g>
</svg>
